<svg width="160" height="160" viewBox="0 0 160 160" fill="none" xmlns="http://www.w3.org/2000/svg">
  <defs>
    <radialGradient id="outerLight" cx="50%" cy="35%" r="75%">
      <stop offset="0%" stop-color="#C7E8FF"/>
      <stop offset="65%" stop-color="#5CAAF6"/>
      <stop offset="100%" stop-color="#1C64D7"/>
    </radialGradient>
    <linearGradient id="wedgeLight" x1="96" y1="32" x2="120" y2="72" gradientUnits="userSpaceOnUse">
      <stop offset="0%" stop-color="#FFFFFF"/>
      <stop offset="100%" stop-color="#E1EBFF"/>
    </linearGradient>
  </defs>
  <circle cx="80" cy="80" r="74" fill="url(#outerLight)"/>
  <g fill="url(#wedgeLight)">
    <path d="M80 22 L122 38 L96 80 L76 70 Z"/>
    <path d="M124 41 L140 83 L100 100 L96 80 Z"/>
    <path d="M138 88 L120 126 L82 120 L100 100 Z"/>
    <path d="M118 128 L76 142 L60 100 L82 120 Z"/>
    <path d="M72 140 L30 124 L56 82 L60 100 Z"/>
    <path d="M36 118 L20 76 L60 60 L56 82 Z"/>
    <path d="M22 72 L40 34 L78 40 L60 60 Z"/>
    <path d="M42 32 L84 18 L100 60 L78 40 Z"/>
  </g>
  <path d="M80 60 C88 60 96 66 98 74 C100 82 94 90 86 92 C78 94 70 88 68 80 C66 72 72 64 80 60 Z" fill="#F4F8FF"/>
</svg>
